<svg width="54" height="49" viewBox="0 0 54 49" fill="none" xmlns="http://www.w3.org/2000/svg">
<g filter="url(#filter0_d_0_1983)">
<path d="M32.3897 3.00073H21.7311C18.9766 3.00073 16.7011 5.2762 16.7011 8.15045V9.34806H10.9526C8.79695 9.34806 7.00049 11.1445 7.00049 13.4199V33.5396C7.00049 35.8151 8.79695 37.6115 10.9526 37.6115H18.258H43.0484C45.2041 37.6115 47.0005 35.8151 47.0005 33.5396V13.4199C47.0005 11.1445 45.2041 9.34806 43.0484 9.34806H37.2999V8.15045C37.2999 5.2762 35.1442 3.00073 32.3897 3.00073ZM23.1681 35.8151H22.0903V10.5457H23.1681V35.8151ZM29.9945 35.8151H24.0065V10.5457H29.9945V35.8151ZM31.9107 35.8151H30.9526H30.8328V10.5457H30.9526H31.9107V35.8151ZM32.6292 9.34806H21.4915V8.15045C21.4915 8.03069 21.6113 7.91092 21.7311 7.91092H32.3897C32.5095 7.91092 32.6292 8.03069 32.6292 8.15045V9.34806ZM43.0484 11.0247C44.3658 11.0247 45.3238 12.1025 45.3238 13.4199V33.5396C45.3238 34.857 44.246 35.9348 43.0484 35.9348H32.749V11.0247H33.3478C33.8268 11.0247 34.1861 10.6654 34.1861 10.1864V8.15045C34.1861 7.07261 33.3478 6.23428 32.3897 6.23428H21.7311C20.6532 6.23428 19.9347 7.07261 19.9347 8.15045V10.1864C19.9347 10.6654 20.2939 11.0247 20.7729 11.0247H21.3717V35.9348H11.0724C9.75501 35.9348 8.79689 34.857 8.79689 33.5396V13.4199C8.79689 12.1025 9.87477 11.0247 11.0724 11.0247H17.6592C18.1382 11.0247 18.4975 10.6654 18.4975 10.1864V8.15045C18.4975 6.23428 20.0544 4.67741 21.8508 4.67741H32.5095C34.4257 4.67741 35.8628 6.23428 35.8628 8.15045V10.1864C35.8628 10.6654 36.2221 11.0247 36.7011 11.0247H43.0484Z" fill="white"/>
</g>
<line x1="8.72705" y1="46.3601" x2="45.5815" y2="46.3601" stroke="white" stroke-width="2" stroke-linecap="round"/>
<defs>
<filter id="filter0_d_0_1983" x="0.000488281" y="0.000732422" width="54" height="48.6108" filterUnits="userSpaceOnUse" color-interpolation-filters="sRGB">
<feFlood flood-opacity="0" result="BackgroundImageFix"/>
<feColorMatrix in="SourceAlpha" type="matrix" values="0 0 0 0 0 0 0 0 0 0 0 0 0 0 0 0 0 0 127 0" result="hardAlpha"/>
<feOffset dy="4"/>
<feGaussianBlur stdDeviation="3.5"/>
<feComposite in2="hardAlpha" operator="out"/>
<feColorMatrix type="matrix" values="0 0 0 0 0 0 0 0 0 0 0 0 0 0 0 0 0 0 0.25 0"/>
<feBlend mode="normal" in2="BackgroundImageFix" result="effect1_dropShadow_0_1983"/>
<feBlend mode="normal" in="SourceGraphic" in2="effect1_dropShadow_0_1983" result="shape"/>
</filter>
</defs>
</svg>
