<svg width="50" height="50" viewBox="0 0 50 50" fill="none" xmlns="http://www.w3.org/2000/svg">
<g filter="url(#filter0_d_0_1976)">
<path d="M24.7447 3.13623C15.0807 3.13623 7.24475 10.9722 7.24475 20.6362C7.24475 30.3003 15.0807 38.1362 24.7447 38.1362C34.4088 38.1362 42.2447 30.3003 42.2447 20.6362C42.2447 10.9722 34.4088 3.13623 24.7447 3.13623ZM25.6158 29.1206L25.6237 30.3589C25.6237 30.5308 25.483 30.6753 25.3112 30.6753H24.2018C24.0299 30.6753 23.8893 30.5347 23.8893 30.3628V29.1362C20.4205 28.8784 18.7877 26.9019 18.6119 24.7534C18.5963 24.5698 18.7408 24.4136 18.9244 24.4136H20.7291C20.8815 24.4136 21.0143 24.5229 21.0377 24.6714C21.2369 25.9097 22.2018 26.8354 23.9322 27.0659V21.4917L22.9674 21.2456C20.9244 20.7573 18.9791 19.4839 18.9791 16.8433C18.9791 13.9956 21.1432 12.4644 23.9088 12.1948V10.9058C23.9088 10.7339 24.0494 10.5933 24.2213 10.5933H25.319C25.4908 10.5933 25.6315 10.7339 25.6315 10.9058V12.1831C28.3072 12.4526 30.3151 14.0151 30.5494 16.4487C30.569 16.6323 30.4244 16.7925 30.2369 16.7925H28.483C28.3268 16.7925 28.194 16.6753 28.1744 16.5229C28.0182 15.3823 27.1041 14.4526 25.6158 14.2495V19.4956L26.608 19.7261C29.1393 20.3511 30.8619 21.562 30.8619 24.2729C30.8619 27.2144 28.6744 28.855 25.6158 29.1206ZM21.4088 16.6636C21.4088 17.6558 22.0221 18.4253 23.3424 18.9019C23.526 18.9761 23.7096 19.0347 23.9283 19.0972V14.2534C22.4869 14.437 21.4088 15.2456 21.4088 16.6636ZM25.9596 21.9448C25.8502 21.9214 25.7408 21.894 25.6158 21.8589V27.0815C27.2799 26.9331 28.4283 26.019 28.4283 24.4878C28.4283 23.2886 27.8072 22.5073 25.9596 21.9448Z" fill="white"/>
</g>
<line x1="6.88928" y1="44.521" x2="43.7438" y2="44.521" stroke="white" stroke-width="2" stroke-linecap="round"/>
<defs>
<filter id="filter0_d_0_1976" x="0.244751" y="0.13623" width="49" height="49" filterUnits="userSpaceOnUse" color-interpolation-filters="sRGB">
<feFlood flood-opacity="0" result="BackgroundImageFix"/>
<feColorMatrix in="SourceAlpha" type="matrix" values="0 0 0 0 0 0 0 0 0 0 0 0 0 0 0 0 0 0 127 0" result="hardAlpha"/>
<feOffset dy="4"/>
<feGaussianBlur stdDeviation="3.5"/>
<feComposite in2="hardAlpha" operator="out"/>
<feColorMatrix type="matrix" values="0 0 0 0 0 0 0 0 0 0 0 0 0 0 0 0 0 0 0.25 0"/>
<feBlend mode="normal" in2="BackgroundImageFix" result="effect1_dropShadow_0_1976"/>
<feBlend mode="normal" in="SourceGraphic" in2="effect1_dropShadow_0_1976" result="shape"/>
</filter>
</defs>
</svg>
