<svg width="55" height="49" viewBox="0 0 55 49" fill="none" xmlns="http://www.w3.org/2000/svg">
<g filter="url(#filter0_d_0_1986)">
<path d="M37.2491 3.00073L33.8837 6.55844C33.6914 6.55844 33.4991 6.55843 33.403 6.46228C32.153 5.98151 30.0376 5.5969 27.4414 7.61614L27.3453 7.7123L26.4799 8.57767C23.3068 6.36614 20.8068 7.7123 20.1337 8.19306L16.9606 4.92381L7.15295 15.4046L10.9029 19.3469C10.9029 21.0777 11.4799 22.9046 12.7299 24.7315C13.2107 25.5007 13.7876 26.1738 14.3645 26.8469C15.1337 27.7123 15.903 28.4815 16.6722 29.3469C15.8068 30.6931 16.1914 31.7508 17.0568 32.7123C17.9222 33.6738 18.7876 33.8661 20.0376 33.4815C20.903 34.9238 21.7683 35.5969 22.6337 35.5969C23.0183 35.9815 23.403 36.3661 23.6914 36.7507C24.7491 37.9046 26.4799 38.0969 27.7299 37.3277C28.3068 36.9431 28.403 36.6546 28.6914 36.1738C30.903 38.193 32.3453 38.1931 34.1722 35.4046C35.4222 35.7892 36.2876 35.6931 37.153 34.6354C38.1145 33.5777 38.4029 32.52 37.4414 31.0777L37.153 30.6931C37.9222 30.6931 38.4991 30.2123 38.7876 29.7315C39.653 28.5777 39.5568 27.3277 38.6914 26.0777C39.076 25.693 39.4606 25.2123 39.9414 24.8277C40.5183 24.1546 41.0953 23.4815 41.576 22.7123C42.7299 20.8854 43.3068 19.0585 43.403 17.3277L47.153 13.3854L37.2491 3.00073ZM14.9414 25.4046C13.7876 24.1546 12.9222 22.7123 12.5376 21.1738C12.4414 20.7892 12.4414 20.5008 12.3453 20.1161C12.3453 19.8277 12.3453 19.5392 12.3453 19.1546L8.59526 15.1161L16.7683 6.46228L19.3645 9.25073L19.5568 9.44305L20.8068 9.53921L20.903 9.34689C21.3837 8.96228 23.4991 7.80844 26.1914 10.02L29.8453 13.8661C30.0376 14.0584 30.1337 14.3469 30.1337 14.6354C30.1337 14.9238 30.0376 15.2123 29.8453 15.4046L29.5568 15.6931C29.1722 16.0777 28.5953 16.0777 28.2106 15.6931L24.4606 11.7507L23.5953 12.4238L24.653 13.6738L25.1337 14.1546C24.7491 14.6354 24.2683 15.02 23.8837 15.5007C23.7876 15.5969 23.6914 15.6931 23.6914 15.8854C23.6914 15.8854 23.6914 15.8854 23.5953 15.9815C21.0953 18.6738 18.5953 21.27 16.0953 23.9623C15.4222 24.3469 15.1337 24.8277 14.9414 25.4046ZM27.0568 36.1738C26.7683 36.4623 26.4799 36.6546 25.9991 36.5585C25.4222 36.4623 25.0376 35.9815 24.7491 35.693C24.5568 35.5007 24.3645 35.3085 24.2683 35.1161C24.653 34.9238 25.1337 34.5392 25.6145 34.1546C25.903 34.6354 25.9991 34.9238 26.576 35.3084C26.8645 35.5007 27.0568 35.5969 27.3453 35.693C27.2491 35.8854 27.153 36.0777 27.0568 36.1738ZM32.4414 35.693C31.8645 36.3661 31.2876 36.4623 30.4222 35.693C30.326 35.5969 30.1337 35.4046 30.0376 35.3084C30.2299 35.2123 30.4222 35.02 30.5183 34.9238C30.9991 34.4431 31.4799 33.9623 31.9607 33.4815C32.0568 33.5777 32.0568 33.5777 32.1529 33.6738C32.826 34.3469 32.9222 35.02 32.4414 35.693ZM36.2876 33.4815C35.7107 34.3469 34.8453 34.3469 34.076 33.4815C33.6914 33.0969 33.3068 32.7123 32.9222 32.2315C33.5953 31.5585 34.1722 30.8854 34.8453 30.3085C35.2299 30.6931 35.5184 31.0777 35.903 31.4623C36.576 32.1354 36.7683 32.9046 36.2876 33.4815ZM37.9222 28.6738C37.6337 29.4431 36.7683 29.8277 36.0953 29.443C35.9991 29.443 35.9991 29.3469 35.903 29.3469C36.4799 28.6738 37.153 28.0969 37.7299 27.4238C37.9222 27.7123 38.1145 28.0969 37.9222 28.6738ZM41.8645 17.1354C41.8645 17.4238 41.8645 17.8084 41.8645 18.0969C41.8645 18.4815 41.7684 18.8661 41.6722 19.1546C41.2876 20.7892 40.4222 22.1354 39.2684 23.3854C37.7299 25.1161 36.0953 26.7507 34.5568 28.4815C32.9222 30.2123 31.1914 32.0392 29.5568 33.77C29.2683 34.0584 28.8837 34.5392 28.3068 34.6354C27.9222 34.6354 27.5376 34.5392 27.2491 34.2507C26.9606 33.9623 26.8645 33.2892 26.9606 32.9046C27.0568 32.4238 27.4414 32.0392 27.7299 31.7508C28.4991 30.8854 29.2683 30.1161 30.0376 29.3469C30.4222 28.9623 30.8068 28.5777 31.1914 28.1931C31.576 27.8084 32.7299 26.8469 32.0568 26.1738C31.4799 25.5969 30.6145 26.7507 30.2299 27.1354C29.8453 27.52 29.4607 27.9046 29.076 28.2892C27.3453 30.1161 25.6145 31.943 23.7876 33.77C22.9222 34.5392 22.3453 34.5392 21.7683 33.77C21.1914 33.0969 21.3837 32.4238 22.1529 31.6546C24.1722 29.5392 26.1914 27.4238 28.1145 25.3084C28.403 25.02 28.5953 24.8277 28.6914 24.3469C28.6914 24.0584 28.5953 23.6738 28.3068 23.6738C27.7299 23.5777 27.5376 23.77 27.153 24.1546C24.8453 26.6546 22.4414 29.1546 20.1337 31.6546C19.3645 32.4238 18.4991 32.4238 17.9222 31.6546C17.5376 31.0777 17.6337 30.3084 18.3068 29.6354C20.7106 27.1354 23.1145 24.5392 25.5183 22.0392C25.903 21.6546 26.1914 21.1738 25.7107 20.6931C25.2299 20.2123 24.8453 20.5969 24.4606 20.9815C22.6337 22.9046 20.8068 24.9238 18.8837 26.8469C18.5953 27.1354 18.403 27.3277 18.1145 27.52C17.4414 27.9046 16.576 27.52 16.2876 26.7507C15.9991 25.9815 16.3837 25.5008 16.8645 25.02C19.9414 21.7508 23.0183 18.5777 25.9991 15.3084L27.2491 16.6546C27.6337 17.1354 28.2107 17.3277 28.7876 17.3277C29.3645 17.3277 29.9414 17.1354 30.326 16.6546L30.6145 16.3661C30.9991 15.8854 31.2876 15.3084 31.2876 14.7315C31.2876 14.1546 31.0953 13.5777 30.7107 13.193L27.9222 10.2123L27.3453 9.63537L28.1145 8.86612C29.2683 7.90459 30.326 7.61614 31.0953 7.61614C32.6337 7.42383 33.9799 8.28919 33.9799 8.28919L34.8453 7.42382L37.4414 4.63536L45.6145 13.2892L41.8645 17.1354Z" fill="white"/>
</g>
<line x1="8.75842" y1="46.6687" x2="45.6129" y2="46.6687" stroke="white" stroke-width="2" stroke-linecap="round"/>
<defs>
<filter id="filter0_d_0_1986" x="0.152954" y="0.000732422" width="54" height="48.7885" filterUnits="userSpaceOnUse" color-interpolation-filters="sRGB">
<feFlood flood-opacity="0" result="BackgroundImageFix"/>
<feColorMatrix in="SourceAlpha" type="matrix" values="0 0 0 0 0 0 0 0 0 0 0 0 0 0 0 0 0 0 127 0" result="hardAlpha"/>
<feOffset dy="4"/>
<feGaussianBlur stdDeviation="3.5"/>
<feComposite in2="hardAlpha" operator="out"/>
<feColorMatrix type="matrix" values="0 0 0 0 0 0 0 0 0 0 0 0 0 0 0 0 0 0 0.25 0"/>
<feBlend mode="normal" in2="BackgroundImageFix" result="effect1_dropShadow_0_1986"/>
<feBlend mode="normal" in="SourceGraphic" in2="effect1_dropShadow_0_1986" result="shape"/>
</filter>
</defs>
</svg>
